<svg width="0" height="0">
    <defs>
        <symbol id="etoile" transform="translate(162 2052)">
            <title>Etoile</title>
            <path d="M10.201.758l2.478 5.865 6.344.545a.5.5 0 0 1 .285.876l-4.812 4.169 1.442 6.202a.5.5 0 0 1-.745.541l-5.452-3.288-5.452 3.288a.5.5 0 0 1-.745-.541l1.442-6.202-4.813-4.17a.5.5 0 0 1 .285-.876l6.344-.545L9.28.758a.5.5 0 0"/>
        </symbol>
        <symbol id="etoileVide">
            <title>etoile_vide</title>
            <g id="Mobile_v3" transform="translate(-244.000000, -2908.000000)" fill-rule="nonzero" stroke="#851139">
                <g id="Avis" transform="translate(13.000000, 2333.000000)">
                    <g id="avis3" transform="translate(2.000000, 575.000000)">
                        <g id="note" transform="translate(140.000000, 0.000000)">
                            <polygon id="Star"
                                     points="99.4616217 16.5 92.9959839 19.8991869 94.2308108 12.6995935 89 7.60081306 96.2288028 6.55040653 99.4616217 0 102.694441 6.55040653 109.923243 7.60081306 104.692433 12.6995935 105.927259 19.8991869"></polygon>
                        </g>
                    </g>
                </g>
            </g>
        </symbol>
        <symbol id="triangleBas">
            <title>Triangle</title>
            <g id="Mobile_v3" transform="translate(-278.000000, -3198.000000)" fill="#851139" fill-rule="nonzero">
                <g id="ajout_commentaire" transform="translate(7.000000, 3196.000000)">
                    <polygon id="Triangle" points="278.5 16 271 2 286 2"></polygon>
                </g>
            </g>
        </symbol>
        <symbol id="facebook-logo-button" viewBox="0 0 49.652 49.652">
            <title>facebook-logo-button</title>
            <path d="M24.826,0C11.137,0,0,11.137,0,24.826c0,13.688,11.137,24.826,24.826,24.826c13.688,0,24.826-11.138,24.826-24.826 C49.652,11.137,38.516,0,24.826,0z M31,25.7h-4.039c0,6.453,0,14.396,0,14.396h-5.985c0,0,0-7.866,0-14.396h-2.845v-5.088h2.845 v-3.291c0-2.357,1.12-6.04,6.04-6.04l4.435,0.017v4.939c0,0-2.695,0-3.219,0c-0.524,0-1.269,0.262-1.269,1.386v2.99h4.56L31,25.7z "/>
        </symbol>
        <symbol id="instagram-logo" viewBox="0 0 49.652 49.652">
            <title>instagram-logo</title>
            <path d="M24.825,29.796c2.739,0,4.972-2.229,4.972-4.97c0-1.082-0.354-2.081-0.94-2.897c-0.903-1.252-2.371-2.073-4.029-2.073 c-1.659,0-3.126,0.82-4.031,2.072c-0.588,0.816-0.939,1.815-0.94,2.897C19.854,27.566,22.085,29.796,24.825,29.796z"/>
            <polygon points="35.678,18.746 35.678,14.58 35.678,13.96 35.055,13.962 30.891,13.975 30.907,18.762 "/>
            <path d="M24.826,0C11.137,0,0,11.137,0,24.826c0,13.688,11.137,24.826,24.826,24.826c13.688,0,24.826-11.138,24.826-24.826 C49.652,11.137,38.516,0,24.826,0z M38.945,21.929v11.56c0,3.011-2.448,5.458-5.457,5.458H16.164 c-3.01,0-5.457-2.447-5.457-5.458v-11.56v-5.764c0-3.01,2.447-5.457,5.457-5.457h17.323c3.01,0,5.458,2.447,5.458,5.457V21.929z"/>
            <path d="M32.549,24.826c0,4.257-3.464,7.723-7.723,7.723c-4.259,0-7.722-3.466-7.722-7.723c0-1.024,0.204-2.003,0.568-2.897 h-4.215v11.56c0,1.494,1.213,2.704,2.706,2.704h17.323c1.491,0,2.706-1.21,2.706-2.704v-11.56h-4.217 C32.342,22.823,32.549,23.802,32.549,24.826z"/>
        </symbol>
        <symbol id="twitter-logo-button" viewBox="0 0 49.652 49.652">
            <title>twitter-logo-button</title>
            <path d="M24.826,0C11.137,0,0,11.137,0,24.826c0,13.688,11.137,24.826,24.826,24.826c13.688,0,24.826-11.138,24.826-24.826 C49.652,11.137,38.516,0,24.826,0z M35.901,19.144c0.011,0.246,0.017,0.494,0.017,0.742c0,7.551-5.746,16.255-16.259,16.255 c-3.227,0-6.231-0.943-8.759-2.565c0.447,0.053,0.902,0.08,1.363,0.08c2.678,0,5.141-0.914,7.097-2.446 c-2.5-0.046-4.611-1.698-5.338-3.969c0.348,0.066,0.707,0.103,1.074,0.103c0.521,0,1.027-0.068,1.506-0.199 c-2.614-0.524-4.583-2.833-4.583-5.603c0-0.024,0-0.049,0.001-0.072c0.77,0.427,1.651,0.685,2.587,0.714 c-1.532-1.023-2.541-2.773-2.541-4.755c0-1.048,0.281-2.03,0.773-2.874c2.817,3.458,7.029,5.732,11.777,5.972 c-0.098-0.419-0.147-0.854-0.147-1.303c0-3.155,2.558-5.714,5.713-5.714c1.644,0,3.127,0.694,4.171,1.804 c1.303-0.256,2.523-0.73,3.63-1.387c-0.43,1.335-1.333,2.454-2.516,3.162c1.157-0.138,2.261-0.444,3.282-0.899 C37.987,17.334,37.018,18.341,35.901,19.144z"/>
        </symbol>
        <symbol id="shopping-cart" viewBox="0 0 19.25 19.25">
            <title>shopping-cart</title>
            <path style="fill:#030104;"
                  d="M19.006,2.97c-0.191-0.219-0.466-0.345-0.756-0.345H4.431L4.236,1.461 C4.156,0.979,3.739,0.625,3.25,0.625H1c-0.553,0-1,0.447-1,1s0.447,1,1,1h1.403l1.86,11.164c0.008,0.045,0.031,0.082,0.045,0.124 c0.016,0.053,0.029,0.103,0.054,0.151c0.032,0.066,0.075,0.122,0.12,0.179c0.031,0.039,0.059,0.078,0.095,0.112 c0.058,0.054,0.125,0.092,0.193,0.13c0.038,0.021,0.071,0.049,0.112,0.065c0.116,0.047,0.238,0.075,0.367,0.075 c0.001,0,11.001,0,11.001,0c0.553,0,1-0.447,1-1s-0.447-1-1-1H6.097l-0.166-1H17.25c0.498,0,0.92-0.366,0.99-0.858l1-7 C19.281,3.479,19.195,3.188,19.006,2.97z M17.097,4.625l-0.285,2H13.25v-2H17.097z M12.25,4.625v2h-3v-2H12.25z M12.25,7.625v2 h-3v-2H12.25z M8.25,4.625v2h-3c-0.053,0-0.101,0.015-0.148,0.03l-0.338-2.03H8.25z M5.264,7.625H8.25v2H5.597L5.264,7.625z M13.25,9.625v-2h3.418l-0.285,2H13.25z"/>
            <circle style="fill:#030104;" cx="6.75" cy="17.125" r="1.5"/>
            <circle style="fill:#030104;" cx="15.75" cy="17.125" r="1.5"/>
        </symbol>
        <symbol id="erreur">
            <g id="Tuile-de-style" fill="none" fill-rule="evenodd">
                <g id="Tuile-de-style-v1" transform="translate(-751 -444)" fill-rule="nonzero">
                    <g id="warning" transform="translate(751 444)">
                        <g id="Group" transform="matrix(1 0 0 -1 0 25)">
                            <g id="Shape">
                                <path d="M1.592.01C.223.01-.38.984.25 2.176l11.602 21.921c.63 1.193 1.663 1.193 2.294 0l11.602-21.92C26.38.985 25.775.009 24.406.009H1.592z"
                                      fill="#FFCC4D"/>
                                <path d="M11.341 17.761c0 .95.714 1.538 1.659 1.538.922 0 1.66-.61 1.66-1.538V9.055c0-.928-.738-1.538-1.66-1.538-.945 0-1.659.589-1.659 1.538v8.706zM11.203 4.42c0 .972.806 1.763 1.797 1.763.99 0 1.798-.791 1.798-1.763 0-.974-.807-1.765-1.798-1.765-.99 0-1.797.792-1.797 1.765z"
                                      fill="#9A0000"/>
                            </g>
                        </g>
                    </g>
                </g>
            </g>
        </symbol>
        <symbol id="succes">
            <g id="Tuile-de-style" fill="none" fill-rule="evenodd">
                <g id="Tuile-de-style-v1" transform="translate(-758 -430)">
                    <g id="succes" transform="translate(758 430)">
                        <circle id="Oval" fill="#008838" fill-rule="nonzero" cx="13" cy="13" r="13"/>
                        <path id="Shape" stroke="#FFF" stroke-width="3" stroke-linecap="round" stroke-linejoin="round"
                              d="M19.76 7.8l-8.32 9.36L6.24 13"/>
                    </g>
                </g>
            </g>
        </symbol>
        <symbol id="down-arrow" viewBox="0 0 129 129">
            <title>down-arrow</title>
            <path d="m121.3,34.6c-1.6-1.6-4.2-1.6-5.8,0l-51,51.1-51.1-51.1c-1.6-1.6-4.2-1.6-5.8,0-1.6,1.6-1.6,4.2 0,5.8l53.9,53.9c0.8,0.8 1.8,1.2 2.9,1.2 1,0 2.1-0.4 2.9-1.2l53.9-53.9c1.7-1.6 1.7-4.2 0.1-5.8z"/>
        </symbol>
        <symbol id="checkmark-symbol" viewBox="0 0 64 64">
            <title>checkmark-symbol</title>
            <path d="M32,0C14.327,0,0,14.327,0,32c0,17.674,14.327,32,32,32s32-14.326,32-32C64,14.327,49.673,0,32,0z M28.222,41.191 L28,40.971l-0.222,0.223l-8.971-8.971l1.414-1.415L28,38.586l15.777-15.778l1.414,1.414L28.222,41.191z"/>
        </symbol>
        <symbol id="right-arrow" viewBox="0 0 129 129">
            <title>right-arrow</title>
            <path d="m40.4,121.3c-0.8,0.8-1.8,1.2-2.9,1.2s-2.1-0.4-2.9-1.2c-1.6-1.6-1.6-4.2 0-5.8l51-51-51-51c-1.6-1.6-1.6-4.2 0-5.8 1.6-1.6 4.2-1.6 5.8,0l53.9,53.9c1.6,1.6 1.6,4.2 0,5.8l-53.9,53.9z"/>
        </symbol>
        <symbol id="search" viewBox="0 0 129 129">
            <path d="M51.704,51.273L36.845,35.82c3.79-3.801,6.138-9.041,6.138-14.82c0-11.58-9.42-21-21-21s-21,9.42-21,21s9.42,21,21,21
	c5.083,0,9.748-1.817,13.384-4.832l14.895,15.491c0.196,0.205,0.458,0.307,0.721,0.307c0.25,0,0.499-0.093,0.693-0.279
	C52.074,52.304,52.086,51.671,51.704,51.273z M21.983,40c-10.477,0-19-8.523-19-19s8.523-19,19-19s19,8.523,19,19
	S32.459,40,21.983,40z"/>
        </symbol>
    </defs>
</svg>